<svg width="107" height="111" viewBox="0 0 107 111" fill="none" xmlns="http://www.w3.org/2000/svg">
<path d="M19.981 40.3417L20.0349 41.0532L20.6043 41.4832L68.9735 78.0064C68.5337 80.3721 67.3416 83.6131 65.0285 86.433C62.4522 89.5738 58.4693 92.2202 52.44 92.5667C46.4722 92.9097 41.7693 90.425 38.2576 87.085C35.4721 84.4356 33.4826 81.2861 32.2878 78.7183L42.017 77.9531L46.1761 77.626L42.8437 75.1159L17.1882 55.7914L15.5132 54.5297L14.7624 56.4877L4.12476 84.2278L2.81481 87.6438L6.19964 86.2553L15.2939 82.5248C17.0389 87.1816 20.3917 93.3555 25.4629 98.5515C31.1683 104.397 39.13 109.078 49.4423 108.814C74.6976 108.169 87.6719 88.7356 86.3296 74.3609L86.2706 73.7291L85.791 73.3136C81.1553 69.2978 61.2593 53.7795 46.2946 42.1073C42.8156 39.3938 39.6031 36.8881 36.9109 34.7832C37.0127 32.1698 37.887 28.4859 40.2247 25.2519C42.7462 21.7638 47.0405 18.6955 54.2236 18.1089C61.3701 17.5254 66.1487 20.0127 69.2787 23.277C71.8314 25.9392 73.3277 29.1657 74.0425 31.7852H64.1069H59.7302L63.0977 34.5809L87.5017 54.8405L89.0789 56.1499L89.9435 54.2913L101.833 28.733L103.377 25.4132L99.9021 26.5671L91.1385 29.4772C89.5977 24.5827 86.4419 18.252 81.3994 12.9165C75.7502 6.9389 67.6902 2.175 56.9109 2.175C43.6329 2.175 34.0246 7.35673 27.9223 14.7915C21.8538 22.185 19.3273 31.7129 19.981 40.3417Z" fill="#EAEAEA" stroke="#1C1C1C" stroke-width="3.16"/>
</svg>
