<svg width="30" height="30" viewBox="0 0 30 30" fill="none" xmlns="http://www.w3.org/2000/svg">
<path d="M12.5 20H6.25001V26.25M17.5 10H23.75V3.75M5.72876 11.2538C6.42975 9.51931 7.60322 8.01627 9.11579 6.91546C10.6284 5.81464 12.4194 5.16019 14.2854 5.02647C16.1513 4.89275 18.0174 5.28513 19.6715 6.15901C21.3256 7.03289 22.7014 8.35324 23.6425 9.97M24.2725 18.7462C23.5717 20.481 22.3982 21.9844 20.8855 23.0854C19.3728 24.1865 17.5815 24.8411 15.7153 24.9748C13.8491 25.1085 11.9828 24.716 10.3286 23.8419C8.67438 22.9678 7.29854 21.6471 6.35751 20.03" stroke="black" stroke-width="2" stroke-linecap="round" stroke-linejoin="round"/>
</svg>
